<?xml version="1.0" encoding="utf-8"?>
<!-- Generator: Adobe Illustrator 22.0.1, SVG Export Plug-In . SVG Version: 6.00 Build 0)  -->
<svg version="1.1" id="Слой_1" xmlns="http://www.w3.org/2000/svg" xmlns:xlink="http://www.w3.org/1999/xlink" width="35px" height="35px" x="0px" y="0px"
	 viewBox="0 0 596 596" style="enable-background:new 0 0 596 596;" xml:space="preserve">
<style type="text/css">
	.st0{fill:#E1574C;}
	.st1{fill:#FEFEFE;}
	.st2{fill:#E1594E;}
	.st3{fill:#E1584D;}
</style>
<g>
	<g>
		<path class="st0" d="M1,324c0-16.7,0-33.3,0-50c0.4-1.2,1-2.3,1.1-3.5c3.9-38.3,13.9-75,32.3-108.9C82.8,72.7,157,19.9,257.1,3.8
			C262.8,2.9,268.4,2,274,1c16.3,0,32.7,0,49,0c0.8,0.3,1.7,0.9,2.5,1c9.2,1.3,18.5,2.2,27.7,3.9c125.6,22.7,223.9,125.4,241,251.6
			c1,7.2,1.9,14.4,2.8,21.5c0,14.7,0,29.3,0,44c-0.4,1-0.9,2-1,3c-2,12.5-3.4,25.1-6,37.4C564.9,483.4,462.3,578,340.4,594.2
			c-6.1,0.8-12.3,1.9-18.4,2.8c-14.7,0-29.3,0-44,0c-1.1-0.3-2.1-0.8-3.2-0.9c-14.1-2.1-28.5-3.4-42.4-6.5
			C111.8,562.1,21.1,463.1,3.8,340.4C3,334.9,1.9,329.5,1,324z M541,298.8C540.5,165.2,433.3,58.6,301.9,57
			C167.3,55.5,58.6,163.4,57,295.9c-1.6,134.6,106.5,244.7,241.3,245C432.4,541.3,541,432.7,541,298.8z"/>
		<path class="st2" d="M336.5,243.6c0,26.7-0.2,53.3,0.1,80c0.2,13.1-5.8,22.1-17.3,27.2c-14.1,6.3-28.5,6.2-42.5-0.7
			c-10.1-5-15.4-13.3-15.4-24.8c0.1-53.3,0-106.6,0-159.9c0-19,7.9-28.9,26.7-32.7c11.7-2.4,23.3-1.5,33.9,4.6
			c9.4,5.3,14.6,13.3,14.5,24.4C336.4,188.9,336.5,216.3,336.5,243.6z"/>
		<path class="st3" d="M336.2,429.3c0,20.7-16.3,37.1-37,37.2c-21,0.1-37.3-16.3-37.3-37.3c0-20.8,16.3-37.1,37-37.2
			C319.7,391.9,336.1,408.3,336.2,429.3z"/>
	</g>
</g>
</svg>
